<svg xmlns="http://www.w3.org/2000/svg" width="307.855" height="111.676" viewBox="0 0 307.855 111.676">
  <g id="LOGO" transform="translate(-189.207 -67.294)">
    <path id="Path_506" data-name="Path 506" d="M253.836,163.975c13.387-13.5,24.318-35.049,18.677-59.6a7.373,7.373,0,0,0-2.835-4.3c-5.222-3.838-12.81-6.57-20.647-10.126-1.489-.676-3.076.6-2.38,2.008,5.407,10.917,16.737,39.5,6.8,71.8a.228.228,0,0,0,.385.215" fill="#aa182c"/>
    <path id="Path_507" data-name="Path 507" d="M250.812,166.214h0c3.437-5.975,7.725-56.071-24.967-87.5a8.59,8.59,0,0,0-3-1.855c-9.154-3.365-23.363-7.369-31.229-9.491a1.828,1.828,0,0,0-1.976,2.89c22.161,26.362,51.745,70.065,44.351,108.714a97.016,97.016,0,0,0,14.825-10.507,13.085,13.085,0,0,0,2-2.249" fill="#aa182c"/>
    <path id="Path_508" data-name="Path 508" d="M231.685,178.97a67.587,67.587,0,0,0-1.6-24l-10.848,4.918a5.532,5.532,0,0,0-3.359,3.478,6.193,6.193,0,0,0,2.449,6.727Z" fill="#002f87"/>
    <path id="Path_509" data-name="Path 509" d="M320.665,101.207,309.5,125.918h-.974l-11.177-24.711H302.4a.851.851,0,0,1,.786.526l5.853,14.189,5.8-14.186a.851.851,0,0,1,.787-.529Z" fill="#002f87"/>
    <path id="Path_510" data-name="Path 510" d="M323.97,101.207h4.106a.851.851,0,0,1,.851.851v23.406H323.97Z" fill="#002f87"/>
    <path id="Path_511" data-name="Path 511" d="M334.462,101.207h7.954c7.683-.074,13.344,4.88,13.238,12.083.106,7.013-5.555,12.295-13.238,12.176h-7.954Zm7.911,19.772c4.894,0,8.165-3.051,8.165-7.689,0-4.737-3.192-7.569-8.165-7.569H339.45v15.258Z" fill="#002f87"/>
    <path id="Path_512" data-name="Path 512" d="M369.914,115.923v9.542h-4.971v-9.5l-8.377-14.755h5.008a.85.85,0,0,1,.743.437l5.127,9.211,5.1-9.21a.852.852,0,0,1,.744-.438h4.977Z" fill="#002f87"/>
    <path id="Path_513" data-name="Path 513" d="M392.843,122.325h-9.919l-1.136,2.626a.849.849,0,0,1-.78.514h-4.781l11.17-24.68h.975l11.17,24.68h-4.783a.849.849,0,0,1-.78-.514Zm-4.956-12.306-3.24,8.2h6.476Z" fill="#002f87"/>
    <path id="Path_514" data-name="Path 514" d="M404.39,117.961c1.588,2.192,3.306,3.554,5.96,3.554,2.174,0,3.454-1.024,3.454-2.7,0-1.434-.773-1.925-3.081-3.013l-2.624-1.182c-3.709-1.62-5.873-3.715-5.873-6.981,0-4.144,3.451-6.854,8.033-6.854a8.784,8.784,0,0,1,7.629,3.9.859.859,0,0,1-.194,1.155l-2.783,2.124a5.476,5.476,0,0,0-4.652-2.79c-1.711,0-3.008.874-3.008,2.393,0,1.246.775,1.83,2.843,2.752l2.746,1.21c4.086,1.8,6.009,3.855,6.009,7.111,0,4.434-3.648,7.278-8.5,7.278a10.543,10.543,0,0,1-8.94-4.658.859.859,0,0,1,.187-1.162Z" fill="#002f87"/>
    <path id="Path_515" data-name="Path 515" d="M423.214,101.207h4.1a.851.851,0,0,1,.851.851v8.478h10.75v-8.478a.851.851,0,0,1,.85-.851h4.111v24.258h-4.961V115h-10.75v10.469h-4.951Z" fill="#002f87"/>
    <path id="Path_516" data-name="Path 516" d="M449.406,101.207h4.125a.851.851,0,0,1,.851.851v23.406h-4.976Z" fill="#002f87"/>
    <path id="Path_517" data-name="Path 517" d="M459.93,101.207h4.106a.851.851,0,0,1,.851.851v18.921h10.631v4.486H459.93Z" fill="#002f87"/>
    <path id="Path_518" data-name="Path 518" d="M479.2,101.207h9.115c5.064,0,8.75,3.163,8.75,7.866,0,4.588-3.686,7.863-8.75,7.863h-4.153v7.679a.85.85,0,0,1-.851.851H479.2Zm9.115,11.373a3.5,3.5,0,1,0,0-7h-4.153v7Z" fill="#002f87"/>
    <path id="Path_519" data-name="Path 519" d="M299.637,138.146h2.321a.51.51,0,0,1,.51.511v14.065c0,4.628,2.738,7.083,6.667,7.083,3.912,0,6.619-2.455,6.619-7.083V138.657a.51.51,0,0,1,.51-.511h2.3v14.411c0,6.229-3.974,9.862-9.433,9.862-5.57,0-9.5-3.633-9.5-9.862Z" fill="#002f87"/>
    <path id="Path_520" data-name="Path 520" d="M343.868,138.146v24.273h-1.005l-15.184-18.294V161.5a.509.509,0,0,1-.51.509h-2.3V137.787h1.006l15.187,18.285V138.657a.511.511,0,0,1,.511-.511Z" fill="#002f87"/>
    <path id="Path_521" data-name="Path 521" d="M350.455,138.146h2.3a.511.511,0,0,1,.511.51v23.357h-2.81Z" fill="#002f87"/>
    <path id="Path_522" data-name="Path 522" d="M379.358,138.146l-10.336,24.273h-1.054l-10.333-24.273H360.4a.509.509,0,0,1,.471.316l7.641,18.418,7.6-18.418a.511.511,0,0,1,.472-.316Z" fill="#002f87"/>
    <path id="Path_523" data-name="Path 523" d="M383.764,138.146h15.28v2.013a.51.51,0,0,1-.51.511H386.577v7.3h9.535v2.543h-9.535v8.961h12.4a.511.511,0,0,1,.511.512v2.026h-15.72Z" fill="#002f87"/>
    <path id="Path_524" data-name="Path 524" d="M419.536,162.014l-7.413-10.044h-5.085V161.5a.511.511,0,0,1-.51.511H404.2V138.146h8.4c4.629,0,7.607,2.91,7.607,6.922a6.605,6.605,0,0,1-5.013,6.592l7.615,10.354Zm-12.5-12.522h5.453c3.071,0,4.808-1.773,4.808-4.376,0-2.631-1.781-4.445-4.808-4.445h-5.453Z" fill="#002f87"/>
    <path id="Path_525" data-name="Path 525" d="M426.816,155.71c1.754,2.709,4,4.1,6.622,4.1,2.872,0,4.825-1.546,4.825-3.96,0-2.182-1.3-2.929-3.983-4.2L431.6,150.4c-3.277-1.554-5.384-3.253-5.384-6.442,0-3.695,3.3-6.166,7.2-6.166a8.8,8.8,0,0,1,7.2,3.607.508.508,0,0,1-.117.7l-1.669,1.247a6.633,6.633,0,0,0-5.458-2.987c-2.351,0-4.232,1.261-4.232,3.484a2.882,2.882,0,0,0,.477,1.714c.62.906,1.488,1.406,3.358,2.3l2.64,1.255c3.765,1.853,5.563,3.569,5.563,6.646,0,3.913-3.251,6.663-7.7,6.663a10,10,0,0,1-8.531-4.752.51.51,0,0,1,.133-.683Z" fill="#002f87"/>
    <path id="Path_526" data-name="Path 526" d="M446.661,138.146h2.312a.51.51,0,0,1,.51.51v23.357h-2.822Z" fill="#002f87"/>
    <path id="Path_527" data-name="Path 527" d="M461.815,140.67h-7.874a.51.51,0,0,1-.51-.51v-2.013H473.05v2.013a.51.51,0,0,1-.51.51h-7.891v21.344h-2.834Z" fill="#002f87"/>
    <path id="Path_528" data-name="Path 528" d="M486.285,152.158v9.856h-2.828v-9.856L475.2,138.147h2.864a.51.51,0,0,1,.441.254l6.356,10.96,6.408-10.961a.508.508,0,0,1,.44-.253h2.848Z" fill="#002f87"/>
  </g>
</svg>
